korean_heart coordinate motion generated from LLM joint_angles
version=1
nRows=15
nColumns=29
inDegrees=yes
endheader
time	elbow_flexion	pro_sup	rotaxis_auxprfem_r3	deviation	auxprrud_auxdrfem_r3	auxdrfem_auxdrrud_r1	MCP2_lateral	MCP2_flex	PIP_flex	DIP_flex	MCP2M_lateral	MCP2M_flex	MPIP_flex	MDIP_flex	RCP2M_lateral	RCP2M_flex	RPIP_flex	RDIP_flex	LCP2M_lateral	LCP2M_flex	LPIP_flex	LDIP_flex	thumb_abd	thumb_flex	TCP2M_lateral	TCP2M_flex	TCP2M2_flex	flexion
0.000000	0.000000	0.000000	0.000000	0.000000	0.000000	0.000000	0.000000	0.000000	0.000000	0.000000	0.000000	0.000000	0.000000	0.000000	0.000000	0.000000	0.000000	0.000000	0.000000	0.000000	0.000000	0.000000	0.000000	0.000000	0.000000	0.000000	0.000000	0.000000
0.006667	0.000000	0.000000	0.000000	0.000000	0.000000	0.000000	0.000000	0.000000	0.000000	0.000000	0.000000	0.000000	0.000000	0.000000	0.000000	1.884818	1.884818	1.884818	0.000000	1.884818	1.884818	1.884818	0.942409	0.942409	0.000000	0.942409	0.942409	0.000000
0.013333	0.000000	0.000000	0.000000	0.000000	0.000000	0.000000	0.000000	0.000000	0.000000	0.000000	0.000000	0.000000	0.000000	0.000000	0.000000	3.768809	3.768809	3.768809	0.000000	3.768809	3.768809	3.768809	1.884404	1.884404	0.000000	1.884404	1.884404	0.000000
0.020000	0.000000	0.000000	0.000000	0.000000	0.000000	0.000000	0.000000	0.000000	0.000000	0.000000	0.000000	0.000000	0.000000	0.000000	0.000000	5.651147	5.651147	5.651147	0.000000	5.651147	5.651147	5.651147	2.825573	2.825573	0.000000	2.825573	2.825573	0.000000
0.026667	0.000000	0.000000	0.000000	0.000000	0.000000	0.000000	0.000000	0.000000	0.000000	0.000000	0.000000	0.000000	0.000000	0.000000	0.000000	7.531006	7.531006	7.531006	0.000000	7.531006	7.531006	7.531006	3.765503	3.765503	0.000000	3.765503	3.765503	0.000000
0.033333	0.000000	0.000000	0.000000	0.000000	0.000000	0.000000	0.000000	0.000000	0.000000	0.000000	0.000000	0.000000	0.000000	0.000000	0.000000	9.407562	9.407562	9.407562	0.000000	9.407562	9.407562	9.407562	4.703781	4.703781	0.000000	4.703781	4.703781	0.000000
0.040000	0.000000	0.000000	0.000000	0.000000	0.000000	0.000000	0.000000	0.000000	0.000000	0.000000	0.000000	0.000000	0.000000	0.000000	0.000000	11.279991	11.279991	11.279991	0.000000	11.279991	11.279991	11.279991	5.639996	5.639996	0.000000	5.639996	5.639996	0.000000
0.046667	0.000000	0.000000	0.000000	0.000000	0.000000	0.000000	0.000000	0.000000	0.000000	0.000000	0.000000	0.000000	0.000000	0.000000	0.000000	13.147473	13.147473	13.147473	0.000000	13.147473	13.147473	13.147473	6.573736	6.573736	0.000000	6.573736	6.573736	0.000000
0.053333	0.000000	0.000000	0.000000	0.000000	0.000000	0.000000	0.000000	0.000000	0.000000	0.000000	0.000000	0.000000	0.000000	0.000000	0.000000	15.009187	15.009187	15.009187	0.000000	15.009187	15.009187	15.009187	7.504594	7.504594	0.000000	7.504594	7.504594	0.000000
0.060000	0.000000	0.000000	0.000000	0.000000	0.000000	0.000000	0.000000	0.000000	0.000000	0.000000	0.000000	0.000000	0.000000	0.000000	0.000000	16.864318	16.864318	16.864318	0.000000	16.864318	16.864318	16.864318	8.432159	8.432159	0.000000	8.432159	8.432159	0.000000
0.066667	0.000000	0.000000	0.000000	0.000000	0.000000	0.000000	0.000000	0.000000	0.000000	0.000000	0.000000	0.000000	0.000000	0.000000	0.000000	18.712052	18.712052	18.712052	0.000000	18.712052	18.712052	18.712052	9.356026	9.356026	0.000000	9.356026	9.356026	0.000000
0.073333	0.000000	0.000000	0.000000	0.000000	0.000000	0.000000	0.000000	0.000000	0.000000	0.000000	0.000000	0.000000	0.000000	0.000000	0.000000	20.551578	20.551578	20.551578	0.000000	20.551578	20.551578	20.551578	10.275789	10.275789	0.000000	10.275789	10.275789	0.000000
0.080000	0.000000	0.000000	0.000000	0.000000	0.000000	0.000000	0.000000	0.000000	0.000000	0.000000	0.000000	0.000000	0.000000	0.000000	0.000000	22.382090	22.382090	22.382090	0.000000	22.382090	22.382090	22.382090	11.191045	11.191045	0.000000	11.191045	11.191045	0.000000
0.086667	0.000000	0.000000	0.000000	0.000000	0.000000	0.000000	0.000000	0.000000	0.000000	0.000000	0.000000	0.000000	0.000000	0.000000	0.000000	24.202784	24.202784	24.202784	0.000000	24.202784	24.202784	24.202784	12.101392	12.101392	0.000000	12.101392	12.101392	0.000000
0.093333	0.000000	0.000000	0.000000	0.000000	0.000000	0.000000	0.000000	0.000000	0.000000	0.000000	0.000000	0.000000	0.000000	0.000000	0.000000	26.012862	26.012862	26.012862	0.000000	26.012862	26.012862	26.012862	13.006431	13.006431	0.000000	13.006431	13.006431	0.000000
